<svg xmlns="http://www.w3.org/2000/svg" fill="none" viewBox="0 0 935 212"><path fill="#fff" d="M180.18 33.73 127.55.03l-52.62 33.7 52.62 33.71 52.63-33.71ZM74.93 177.66l52.62 33.71 52.63-33.71-52.63-33.7-52.62 33.7ZM52.63 96 0 129.7l52.63 33.7 52.62-33.7L52.63 96Zm149.85 0-52.62 33.7 52.62 33.7 52.63-33.7L202.48 96Zm169.81-45.43c-8.35 0-14.89 1.74-19.62 5.22-4.73 3.48-7.09 8.3-7.09 14.46 0 2.49.46 4.82 1.37 6.98a15.72 15.72 0 0 0 4.01 5.61 18.53 18.53 0 0 0 6.54 3.68c2.6.88 5.62 1.32 9.07 1.32 4.98 0 9.53-1.06 13.63-3.19a25.35 25.35 0 0 0 9.67-8.46v10.44h11.43V49.91c0-3.59-.59-6.85-1.76-9.78a20.38 20.38 0 0 0-5.17-7.53 23.44 23.44 0 0 0-8.41-4.84 35.13 35.13 0 0 0-11.38-1.7c-6.38 0-11.86 1.28-16.43 3.85a35.9 35.9 0 0 0-11.27 9.67l10.55 6.16a19.18 19.18 0 0 1 6.82-6.98c2.86-1.72 6.27-2.58 10.22-2.58 5.28 0 9.16 1.25 11.65 3.74s3.74 5.72 3.74 9.67v.99h-17.59l.02-.01Zm17.59 14.4a19.78 19.78 0 0 1-3.68 5.28 23.16 23.16 0 0 1-5 3.9 25.23 25.23 0 0 1-5.83 2.47c-2.05.59-4.14.88-6.27.88-3.96 0-6.85-.73-8.68-2.2a7.32 7.32 0 0 1-2.75-6.05c0-2.93 1.19-5.2 3.57-6.82 2.38-1.61 6.32-2.42 11.82-2.42h16.82v4.96ZM453.86 41c2.56 3.01 3.85 7.04 3.85 12.09v33.53h11.98v-34.4c0-4.03-.57-7.68-1.7-10.94a22.93 22.93 0 0 0-4.84-8.24 21.08 21.08 0 0 0-7.7-5.17 27.28 27.28 0 0 0-10.17-1.81c-4.18 0-7.86.86-11.05 2.58a22.88 22.88 0 0 0-7.86 6.87v-9.24l-11.65 5v55.36h11.87V53.87c0-2.64.4-5.04 1.21-7.2a16.08 16.08 0 0 1 3.35-5.5 14.54 14.54 0 0 1 5.06-3.46 16.25 16.25 0 0 1 6.32-1.21c4.98 0 8.76 1.5 11.32 4.51l.01-.01Zm75.74 23.64a21.35 21.35 0 0 1-6.65 8.63c-2.97 2.31-6.58 3.46-10.83 3.46a19.29 19.29 0 0 1-18.08-12.09 20.11 20.11 0 0 1-1.48-7.7c0-2.72.49-5.28 1.48-7.69a20.01 20.01 0 0 1 4.07-6.32 18.86 18.86 0 0 1 13.8-5.77c4.03 0 7.57 1.03 10.61 3.08a18.87 18.87 0 0 1 6.87 8.57l10.66-4.62a28.36 28.36 0 0 0-4.45-7.31 30.17 30.17 0 0 0-14.4-9.51 31.8 31.8 0 0 0-9.29-1.32c-4.33 0-8.37.79-12.15 2.36a30.47 30.47 0 0 0-18.86 28.52 30.67 30.67 0 0 0 8.9 21.87 31.29 31.29 0 0 0 22.2 9.02c6.89 0 12.75-1.74 17.59-5.22a31.45 31.45 0 0 0 10.77-13.47l-10.77-4.51.01.02ZM590 41c2.53 3.01 3.79 7.04 3.79 12.09v33.53h12.09v-34.4c0-4.03-.57-7.68-1.7-10.94a22.93 22.93 0 0 0-4.84-8.24 21.08 21.08 0 0 0-7.7-5.17 27.28 27.28 0 0 0-10.17-1.81c-4.03 0-7.64.82-10.83 2.47a23.5 23.5 0 0 0-7.97 6.65V0l-11.76 5.04v81.58h11.87V53.87c0-2.64.4-5.04 1.21-7.2a16.08 16.08 0 0 1 3.35-5.5 14.54 14.54 0 0 1 5.06-3.46 15.95 15.95 0 0 1 6.21-1.21c5.06 0 8.85 1.5 11.38 4.51L590 41Zm79.86-5.93a31.17 31.17 0 0 0-9.84-6.6 30.4 30.4 0 0 0-12.04-2.42 30.5 30.5 0 0 0-21.87 9.02 31 31 0 0 0-9.02 21.88 30.5 30.5 0 0 0 9.02 21.87 31.19 31.19 0 0 0 9.78 6.6 30.25 30.25 0 0 0 12.09 2.42 30.95 30.95 0 0 0 21.88-9.02 31.36 31.36 0 0 0 6.6-9.78 30.25 30.25 0 0 0 2.42-12.09 30.95 30.95 0 0 0-9.02-21.88Zm-4.23 29.63a20.24 20.24 0 0 1-4.07 6.27 18.77 18.77 0 0 1-6.05 4.23 18.28 18.28 0 0 1-7.53 1.54c-2.71 0-5.22-.51-7.53-1.54a19.08 19.08 0 0 1-10.06-10.5 20.7 20.7 0 0 1-1.43-7.75c0-2.79.48-5.28 1.43-7.69a19.08 19.08 0 0 1 10.06-10.55 18.28 18.28 0 0 1 7.53-1.54 18.86 18.86 0 0 1 13.57 5.77 20.1 20.1 0 0 1 5.55 14.01c0 2.71-.49 5.37-1.48 7.75h.01Zm52.38-38.32c-3.81 0-7.15.93-10 2.8-2.86 1.87-4.91 4.67-6.16 8.41V26.26l-11.65 5v55.36h11.87V53.21c0-5.35 1.25-9.16 3.74-11.43 2.49-2.27 5.86-3.41 10.11-3.41 3.22 0 5.72.59 7.47 1.76l4.62-11.43a14.3 14.3 0 0 0-4.34-1.7c-1.72-.4-3.61-.6-5.66-.6v-.02Zm63.1 6.21a23.44 23.44 0 0 0-8.41-4.84 35.13 35.13 0 0 0-11.38-1.7c-6.38 0-11.86 1.28-16.43 3.85a35.9 35.9 0 0 0-11.27 9.67l10.55 6.16a19.16 19.16 0 0 1 6.81-6.98c2.86-1.72 6.27-2.58 10.22-2.58 5.28 0 9.16 1.25 11.65 3.74s3.74 5.72 3.74 9.67v.99H759c-8.35 0-14.9 1.74-19.62 5.22-4.73 3.48-7.09 8.3-7.09 14.46 0 2.49.46 4.82 1.37 6.98a15.72 15.72 0 0 0 4.01 5.61 18.53 18.53 0 0 0 6.54 3.68c2.6.88 5.62 1.32 9.07 1.32 4.98 0 9.53-1.06 13.63-3.19a25.35 25.35 0 0 0 9.67-8.46v10.44h11.43V49.91c0-3.59-.59-6.85-1.76-9.78a20.38 20.38 0 0 0-5.17-7.53l.03-.01Zm-4.51 32.37a19.78 19.78 0 0 1-3.68 5.28 23.16 23.16 0 0 1-5 3.9 25.42 25.42 0 0 1-5.83 2.47c-2.05.59-4.14.88-6.27.88-3.96 0-6.85-.73-8.68-2.2a7.32 7.32 0 0 1-2.75-6.05c0-2.93 1.19-5.2 3.57-6.82 2.38-1.61 6.32-2.42 11.82-2.42h16.82v4.96Zm72.77-29.12a23.03 23.03 0 0 0-8.85-7.2 26.26 26.26 0 0 0-11.38-2.58c-3.96 0-7.75.73-11.38 2.2a28.86 28.86 0 0 0-9.56 6.27 30.08 30.08 0 0 0-6.54 9.73 32.1 32.1 0 0 0-2.42 12.7c0 4.69.82 8.83 2.47 12.64a30.66 30.66 0 0 0 6.6 9.78 29.16 29.16 0 0 0 9.51 6.27 29.31 29.31 0 0 0 11.21 2.2c3.88 0 7.88-.9 11.54-2.69a23.58 23.58 0 0 0 8.9-7.42v4.62c0 2.71-.46 5.18-1.37 7.42a17.03 17.03 0 0 1-3.85 5.77 17.12 17.12 0 0 1-5.94 3.74 21.62 21.62 0 0 1-7.75 1.32c-4.84 0-8.76-.75-11.76-2.25a22.33 22.33 0 0 1-8.02-7.09l-9.56 7.81a31.8 31.8 0 0 0 11.82 9.23c4.65 2.12 10.57 3.19 17.75 3.19 4.25 0 8.22-.71 11.93-2.14a28.23 28.23 0 0 0 16.16-15.39 29.84 29.84 0 0 0 2.36-12.04V27.26h-11.87v8.58Zm-.82 28.86a19.15 19.15 0 0 1-17.98 12.26c-2.78 0-5.37-.51-7.75-1.54a18.83 18.83 0 0 1-6.21-4.29 19.85 19.85 0 0 1-4.12-6.43 20.78 20.78 0 0 1-1.48-7.86c0-2.79.49-5.4 1.48-7.86a19.42 19.42 0 0 1 4.12-6.38 19.44 19.44 0 0 1 13.96-5.77c2.79 0 5.37.53 7.75 1.59a19.37 19.37 0 0 1 6.16 4.29 20.55 20.55 0 0 1 5.55 14.13c0 2.71-.49 5.41-1.48 7.86Zm85.46-8.31c0-4.4-.77-8.45-2.31-12.15a28.7 28.7 0 0 0-16-15.94 32.04 32.04 0 0 0-12.15-2.25c-4.4 0-8.47.81-12.2 2.42a30.9 30.9 0 0 0-9.78 6.6 30.04 30.04 0 0 0-6.54 9.84 31.44 31.44 0 0 0-2.36 12.26c0 4.4.75 8.35 2.25 12.09a28.25 28.25 0 0 0 6.43 9.73 30.35 30.35 0 0 0 9.95 6.49 33.9 33.9 0 0 0 12.92 2.36c6.45 0 11.87-1.3 16.27-3.9 4.4-2.6 8.02-6.06 10.88-10.39l-9.78-5.83a20.94 20.94 0 0 1-6.87 6.92c-2.82 1.76-6.32 2.64-10.5 2.64-5.5 0-10-1.45-13.52-4.34-3.52-2.89-5.72-6.76-6.6-11.6h49.91v-4.95Zm-49.47-5.17a20.09 20.09 0 0 1 6.82-10.61c3.37-2.75 7.44-4.12 12.2-4.12 4.76 0 8.99 1.28 12.26 3.85 3.26 2.57 5.33 6.19 6.21 10.88h-37.49Zm-494.87 84.22a23.54 23.54 0 0 0-8.85-6.93 26.79 26.79 0 0 0-11.38-2.53c-3.96 0-7.75.73-11.38 2.2a28.86 28.86 0 0 0-9.56 6.27 30.08 30.08 0 0 0-6.54 9.73 32.1 32.1 0 0 0-2.42 12.7c0 4.69.82 8.83 2.47 12.64a30.66 30.66 0 0 0 6.6 9.78 29.16 29.16 0 0 0 9.51 6.27 29.31 29.31 0 0 0 11.21 2.2c3.88 0 7.75-.88 11.38-2.64a24.55 24.55 0 0 0 8.96-7.26v8.68h11.65V99.93l-11.65 5v30.51Zm-1.32 29.19a19.15 19.15 0 0 1-17.98 12.26c-2.78 0-5.37-.51-7.75-1.54a18.83 18.83 0 0 1-6.21-4.29 19.85 19.85 0 0 1-4.12-6.43 20.78 20.78 0 0 1-1.48-7.86c0-2.79.49-5.4 1.48-7.86a19.42 19.42 0 0 1 4.12-6.38 19.44 19.44 0 0 1 13.96-5.77c2.79 0 5.37.53 7.75 1.59a19.37 19.37 0 0 1 6.16 4.29 20.55 20.55 0 0 1 5.55 14.13c0 2.71-.49 5.41-1.48 7.86Zm32.22-62.66c-2.16 0-3.95.72-5.36 2.16a7.41 7.41 0 0 0-2.11 5.41 7.5 7.5 0 0 0 2.07 5.41 7.15 7.15 0 0 0 5.41 2.16 7.3 7.3 0 0 0 7.57-7.57 7.3 7.3 0 0 0-7.57-7.57h-.01Zm98.71 0c-2.16 0-3.95.72-5.36 2.16a7.41 7.41 0 0 0-2.11 5.41 7.5 7.5 0 0 0 2.07 5.41 7.15 7.15 0 0 0 5.41 2.16 7.3 7.3 0 0 0 7.57-7.57 7.3 7.3 0 0 0-7.57-7.57h-.01Zm-92.67 25.22h-11.98v59.36h11.98v-59.36Zm61.34 8.58a23.03 23.03 0 0 0-8.85-7.2 26.26 26.26 0 0 0-11.38-2.58c-3.96 0-7.75.73-11.38 2.2a28.86 28.86 0 0 0-9.56 6.27 30.08 30.08 0 0 0-6.54 9.73 32.1 32.1 0 0 0-2.42 12.7c0 4.69.82 8.83 2.47 12.64a30.66 30.66 0 0 0 6.6 9.78 29.16 29.16 0 0 0 9.51 6.27 29.31 29.31 0 0 0 11.21 2.2c3.88 0 7.88-.9 11.54-2.69a23.5 23.5 0 0 0 8.9-7.42v4.62c0 2.71-.46 5.18-1.37 7.42a17.03 17.03 0 0 1-3.85 5.77 17.12 17.12 0 0 1-5.94 3.74 21.61 21.61 0 0 1-7.75 1.32c-4.84 0-8.76-.75-11.76-2.25a22.33 22.33 0 0 1-8.02-7.09l-9.56 7.8a31.8 31.8 0 0 0 11.82 9.23c4.65 2.12 10.57 3.19 17.75 3.19 4.25 0 8.22-.71 11.93-2.14a29.17 29.17 0 0 0 9.67-6.05 28.06 28.06 0 0 0 6.48-9.34 29.84 29.84 0 0 0 2.36-12.04v-54.63h-11.87v8.57l.01-.02Zm-.82 28.86a19.15 19.15 0 0 1-17.98 12.26c-2.78 0-5.37-.51-7.75-1.54a18.83 18.83 0 0 1-6.21-4.29 19.85 19.85 0 0 1-4.12-6.43 20.78 20.78 0 0 1-1.48-7.86c0-2.79.49-5.4 1.48-7.86a19.42 19.42 0 0 1 4.12-6.38 19.44 19.44 0 0 1 13.96-5.77c2.79 0 5.37.53 7.75 1.59a19.37 19.37 0 0 1 6.16 4.29 20.55 20.55 0 0 1 5.55 14.13c0 2.71-.49 5.41-1.48 7.86Zm37.97-37.44h-11.98v59.36h11.98v-59.36Zm40.79 49.25a7.52 7.52 0 0 1-5.66-2.2c-1.43-1.47-2.14-3.85-2.14-7.15v-29.24h16.6v-10.66h-16.6v-20.45l-11.65 5v15.45h-11.76v10.66h11.76v29.35c0 7.33 1.61 12.57 4.84 15.72 3.22 3.15 7.8 4.73 13.74 4.73 2.49 0 4.78-.31 6.87-.93a19.7 19.7 0 0 0 5.66-2.69l-5.61-9.89a8.91 8.91 0 0 1-6.05 2.31v-.01Zm65.95-43.92a23.44 23.44 0 0 0-8.41-4.84 35.13 35.13 0 0 0-11.38-1.7c-6.38 0-11.86 1.28-16.43 3.85a35.9 35.9 0 0 0-11.27 9.67l10.55 6.16a19.18 19.18 0 0 1 6.82-6.98c2.86-1.72 6.27-2.58 10.22-2.58 5.28 0 9.16 1.25 11.65 3.74s3.74 5.72 3.74 9.67v.99h-17.59c-8.35 0-14.89 1.74-19.62 5.22-4.73 3.48-7.09 8.3-7.09 14.46 0 2.49.46 4.82 1.37 6.98a15.72 15.72 0 0 0 4.01 5.61 18.53 18.53 0 0 0 6.54 3.68c2.6.88 5.62 1.32 9.07 1.32 4.98 0 9.53-1.06 13.63-3.19a25.35 25.35 0 0 0 9.67-8.46v10.44h11.43v-36.72c0-3.59-.59-6.85-1.76-9.78a20.38 20.38 0 0 0-5.17-7.53l.02-.01Zm-4.51 32.37a19.78 19.78 0 0 1-3.68 5.28 23.16 23.16 0 0 1-5 3.9 25.42 25.42 0 0 1-5.83 2.47c-2.05.59-4.14.88-6.27.88-3.96 0-6.85-.73-8.68-2.2a7.32 7.32 0 0 1-2.75-6.05c0-2.93 1.19-5.2 3.57-6.82 2.38-1.61 6.32-2.42 11.82-2.42h16.82v4.96Zm24.74 21.66h11.98V99.93l-11.98 5.14v81.48Z"></path></svg>