<svg xmlns="http://www.w3.org/2000/svg" width="111.755" height="20" viewBox="0 0 111.755 20">
  <g id="LOGO_ALPHA_WHITE" data-name="LOGO ALPHA WHITE" transform="translate(419.35 -43.146)">
    <path id="Path_11" data-name="Path 11" d="M-388.874,43.371H-400.9v19.55h12.2a4.589,4.589,0,0,0,3.327-1.132A3.689,3.689,0,0,0-384.2,59V47.322c0-2.624-1.39-3.951-4.672-3.951m.66,13.915a2.623,2.623,0,0,1-.572,1.843,2.658,2.658,0,0,1-1.974.622h-5.473a.681.681,0,0,1-.66-.66V47.2a.677.677,0,0,1,.66-.66h5.439a3.128,3.128,0,0,1,1.821.461,2.052,2.052,0,0,1,.76,1.766v8.514Zm7.606,5.635h4.013V43.371h-4.013Zm20.03-4.751c0,1.281-1.279,1.577-2.37,1.577h-4.227a1.979,1.979,0,0,1-1.209-.367,1.386,1.386,0,0,1-.585-1.151V48.09a1.48,1.48,0,0,1,.489-1.1,1.618,1.618,0,0,1,1.126-.44h6.994v-3.18h-7.2c-2.243,0-3.617.385-4.315.98-.67.571-1.1,1.672-1.1,3.533v9.785c0,2.26.473,3.589,1.2,4.241.684.617,2.031,1.012,4.253,1.012h6.148a5.439,5.439,0,0,0,3.7-1.029c.683-.614,1.114-1.745,1.114-3.6V51.531h-4.013v6.642Zm29.8-14.2a4.8,4.8,0,0,0-2.884-.821,5.19,5.19,0,0,0-2.544.63,2.735,2.735,0,0,0-1.184,1.563l-3.029,9.758-.018.053-.184.594c-.01.038-.023.076-.035.11l-.3.979a.312.312,0,0,1-.3.217.312.312,0,0,1-.3-.217l-.491-1.58h0l-3.078-9.914a2.739,2.739,0,0,0-1.186-1.563,5.189,5.189,0,0,0-2.544-.63,4.8,4.8,0,0,0-2.883.821,2.764,2.764,0,0,0-1.183,2.394V62.875h4.01V47.844a.426.426,0,0,1,.376-.417.425.425,0,0,1,.462.318h0v.011l.07.228c.044.129.088.275.132.44l3.836,12.363a3.418,3.418,0,0,0,1.174,1.766,2.792,2.792,0,0,0,.961.5,2.2,2.2,0,0,0,1.271,0,2.8,2.8,0,0,0,.963-.5,3.4,3.4,0,0,0,1.171-1.766l3.849-12.367c.041-.162.086-.308.132-.44l.068-.228v-.011a.425.425,0,0,1,.461-.314.425.425,0,0,1,.375.413V62.881h4.011V46.367a2.767,2.767,0,0,0-1.182-2.395m16.667,1.649a3.3,3.3,0,0,0-1.369-1.714,3.984,3.984,0,0,0-2.171-.609h-.071a3.98,3.98,0,0,0-2.173.609,3.292,3.292,0,0,0-1.368,1.71L-327.8,63h4.168l1.546-4.068a.9.9,0,0,1,.619-.425h7.535a.893.893,0,0,1,.617.425L-311.767,63h4.171Zm-1.372,9.95H-319.9a.615.615,0,0,1-.619-.894l2.5-6.661.029-.08h0l.092-.255a.209.209,0,0,1,.191-.151h.021a.2.2,0,0,1,.19.136l.093.253h0l.049.137,2.483,6.617a.613.613,0,0,1-.617.894M-418.2,44.45a3.582,3.582,0,0,0-1.153,2.781V59.236a3.148,3.148,0,0,0,1.209,2.711,6.7,6.7,0,0,0,4.031.975h9.61V59.752h-8.8a1.889,1.889,0,0,1-2.046-2.082V55.361a.678.678,0,0,1,.66-.66H-404.5v-3.17h-10.179a.678.678,0,0,1-.66-.66V48.535a2.063,2.063,0,0,1,.488-1.418,1.843,1.843,0,0,1,1.416-.572h8.935V43.372H-414.86a4.739,4.739,0,0,0-3.341,1.082" fill="#e0e0e0"/>
  </g>
</svg>
