<svg xmlns="http://www.w3.org/2000/svg" width="191.451" height="60" viewBox="0 0 191.451 60">
  <g id="Group_9" data-name="Group 9" transform="translate(-320 -594)">
    <path id="Path_12" data-name="Path 12" d="M39.652,13.01a.274.274,0,0,1,.291-.289h10.64a.273.273,0,0,1,.289.288v2.566a.273.273,0,0,1-.291.288H43.726a.153.153,0,0,0-.173.173v4.554a.153.153,0,0,0,.173.173h5.848a.273.273,0,0,1,.292.288v2.392a.273.273,0,0,1-.292.288H43.727a.155.155,0,0,0-.176.173v5.046a.154.154,0,0,0,.174.173h7.1a.272.272,0,0,1,.291.288v2.625a.272.272,0,0,1-.291.288H39.943a.275.275,0,0,1-.291-.289Zm28.831,14.9c0,3.112-2.882,4.7-7.1,4.7-4.8,0-7.041-1.587-7.041-4.7V13.01a.274.274,0,0,1,.291-.289H57.92a.273.273,0,0,1,.291.288V26.785c0,2.247,1.484,2.595,3.23,2.595s3.2-.346,3.2-2.623V13.008a.272.272,0,0,1,.291-.288H68.19a.273.273,0,0,1,.292.288ZM78.926,25.46c-.233-.432-.291-.52-.465-.55H76.252c-.145,0-.233.06-.233.2v6.917a.274.274,0,0,1-.291.289H72.441a.274.274,0,0,1-.291-.289V13.008a.273.273,0,0,1,.291-.288h6.077c4.421,0,6.663,1.469,6.663,5.419,0,2.593-.553,4.149-2.562,5.3-.2.173-.291.289-.291.405a2.313,2.313,0,0,0,.465,1.124l3.869,7.061c.088.145.088.289-.145.289H82.65c-.176,0-.262-.058-.35-.261Zm2.211-6.687c0-2.593-.7-3.256-3.316-3.256H76.4c-.319,0-.379.057-.379.173v6.4c0,.146.06.2.2.233h1.6C80.321,22.318,81.137,21.338,81.137,18.773Zm20.541,12.018c-1.223,1.443-3,1.815-5.821,1.815s-4.507-.372-5.76-1.815c-1.249-1.5-1.949-4.611-1.949-8.271s.7-6.772,1.949-8.271c1.253-1.441,3.027-1.815,5.849-1.815s4.51.374,5.732,1.815c1.279,1.5,1.979,4.613,1.979,8.271s-.7,6.773-1.98,8.271Zm-8.554-2.074c.465.635,1.281.72,2.763.72,1.543,0,2.328-.085,2.794-.72.64-.893.932-3.457.932-6.2,0-2.766-.292-5.3-.932-6.2-.467-.633-1.251-.72-2.735-.72-1.542,0-2.357.086-2.823.72-.64.9-.932,3.431-.932,6.2C92.191,25.259,92.484,27.823,93.123,28.716Zm23.335,3.6c-.233,0-.321-.116-.409-.347l-5.265-14.121c-.148-.379-.233-.577-.407-.577s-.2.057-.2.547l0,14.209a.276.276,0,0,1-.292.289h-2.79a.276.276,0,0,1-.292-.289V13.008a.274.274,0,0,1,.292-.288h4.976c.2,0,.291.145.377.346L117.39,26.7c.146.432.2.46.347.46s.2-.058.2-.288l0-13.864a.272.272,0,0,1,.291-.288h2.876a.273.273,0,0,1,.291.288V32.031a.274.274,0,0,1-.291.289Zm8.554-19.312a.274.274,0,0,1,.292-.288h10.635a.272.272,0,0,1,.291.288v2.565a.273.273,0,0,1-.291.289h-6.852a.153.153,0,0,0-.174.173v4.554a.153.153,0,0,0,.173.173h5.849a.272.272,0,0,1,.291.288v2.39a.274.274,0,0,1-.291.289h-5.849a.153.153,0,0,0-.173.173v5.045a.153.153,0,0,0,.173.173h7.1a.274.274,0,0,1,.292.289v2.621a.275.275,0,0,1-.292.289H125.3a.276.276,0,0,1-.292-.289Zm29.231,18.95L148.29,21.845l5.123-8.779c.075-.157-.055-.349-.281-.349h-3.363a.529.529,0,0,0-.487.349l-3.068,5.29-3.138-5.282a.624.624,0,0,0-.605-.357h-3.41a.239.239,0,0,0-.236.363l5.112,8.74-5.743,10.145c-.1.184-.008.355.192.355h3.481c.247,0,.368-.09.516-.349l3.681-6.539,3.9,6.533c.176.288.308.355.528.355h3.536a.231.231,0,0,0,.22-.361Zm5.769-15.92a.153.153,0,0,0-.173-.173H155.4a.275.275,0,0,1-.291-.289V13.01a.274.274,0,0,1,.291-.288h13.1a.273.273,0,0,1,.292.288v2.568a.275.275,0,0,1-.292.289h-4.438a.153.153,0,0,0-.173.173V32.032a.275.275,0,0,1-.292.289H160.3a.275.275,0,0,1-.291-.289Z" transform="translate(342.664 601.374)" fill="#e0e0e0"/>
    <g id="Group_8" data-name="Group 8" transform="translate(320 613.296)">
      <path id="Path_13" data-name="Path 13" d="M0,27.909H4.255V12.534H0Z" transform="translate(0 -12.534)" fill="#e0e0e0" fill-rule="evenodd"/>
      <path id="Path_14" data-name="Path 14" d="M0,217.877H4.255V205.666H0Z" transform="translate(0 -188.952)" fill="#e0e0e0" fill-rule="evenodd"/>
    </g>
    <g id="Group_6" data-name="Group 6" transform="translate(331.388 604.793)">
      <path id="Path_16" data-name="Path 16" d="M6.958,25.41h4.327V7.038H6.958Z" transform="translate(-6.958 -7.038)" fill="#e0e0e0" fill-rule="evenodd"/>
      <path id="Path_17" data-name="Path 17" d="M6.958,40.233h4.327V18.728H6.958Z" transform="translate(-6.958 0.984)" fill="#e0e0e0" fill-rule="evenodd"/>
    </g>
    <g id="Group_5" data-name="Group 5" transform="translate(337.015 594)">
      <path id="Path_18" data-name="Path 18" d="M10.429,19.58H17.08V0H10.43Z" transform="translate(-10.429)" fill="#e0e0e0" fill-rule="evenodd"/>
      <path id="Path_19" data-name="Path 19" d="M10.429,48.283H17.08V12.459H10.43Z" transform="translate(-10.386 8.461)" fill="#e0e0e0" fill-rule="evenodd"/>
    </g>
    <g id="Group_4" data-name="Group 4" transform="translate(345.187 603.534)">
      <path id="Path_20" data-name="Path 20" d="M15.722,31.486h4.315V6.152H15.722Z" transform="translate(-15.722 -6.152)" fill="#e0e0e0" fill-rule="evenodd"/>
      <path id="Path_21" data-name="Path 21" d="M15.722,46.065h4.315V22.271H15.722Z" transform="translate(-15.672 4.401)" fill="#e0e0e0" fill-rule="evenodd"/>
    </g>
    <g id="Group_3" data-name="Group 3" transform="translate(350.948 598.659)">
      <path id="Path_22" data-name="Path 22" d="M19.2,25.445h6.641V3.05H19.2Z" transform="translate(-19.2 -3.05)" fill="#e0e0e0" fill-rule="evenodd"/>
      <path id="Path_23" data-name="Path 23" d="M19.2,41.566h6.641V17.3H19.2Z" transform="translate(-19.147 6.435)" fill="#e0e0e0" fill-rule="evenodd"/>
    </g>
    <g id="Group_2" data-name="Group 2" transform="translate(358.987 613.69)">
      <path id="Path_24" data-name="Path 24" d="M24.49,24.687h4.323V12.529H24.49Z" transform="translate(-24.429 -12.529)" fill="#e0e0e0" fill-rule="evenodd"/>
      <path id="Path_25" data-name="Path 25" d="M24.49,33.2h4.324V20.264H24.49Z" transform="translate(-24.49 -6.768)" fill="#e0e0e0" fill-rule="evenodd"/>
    </g>
    <g id="Group_1" data-name="Group 1" transform="translate(364.748 609.956)">
      <path id="Path_26" data-name="Path 26" d="M27.97,21.336h4.369v-11.1H27.97Z" transform="translate(-27.97 -10.238)" fill="#e0e0e0" fill-rule="evenodd"/>
      <path id="Path_27" data-name="Path 27" d="M27.97,30.19h4.37V17.3H27.97Z" transform="translate(-27.97 -4.862)" fill="#e0e0e0" fill-rule="evenodd"/>
    </g>
    <g id="Group_7" data-name="Group 7" transform="translate(325.627 602.085)">
      <path id="Path_15" data-name="Path 15" d="M3.452,35.6H7.758V16.069H3.452Z" transform="translate(-3.452 2.305)" fill="#e0e0e0" fill-rule="evenodd"/>
      <path id="Path_28" data-name="Path 28" d="M40.493,22.264H44.8V5.23H40.493Z" transform="translate(-40.493 -5.23)" fill="#e0e0e0" fill-rule="evenodd"/>
    </g>
  </g>
</svg>
