<svg xmlns="http://www.w3.org/2000/svg" width="161.072" height="20" viewBox="0 0 161.072 20">
  <g id="logo-2" transform="translate(-0.12 -2.32)">
    <path id="Path_29" data-name="Path 29" d="M106.865,14.349c-.522-1.126-.8-1.715-1.156-2.6-.335.881-.479,1.152-1.085,2.667l-1.241,3.052h4.88Zm-4.884,6.894-1.742,3.841H95.16l8.858-18.663h4.293l8.859,18.663h-5.017l-1.9-3.841Zm27.866-6.733a3.719,3.719,0,0,0,1.9-.294,2.219,2.219,0,0,0,1.1-1.9,2.256,2.256,0,0,0-1.1-1.9,3.713,3.713,0,0,0-1.9-.27h-6.221v4.353Zm-6.221,10.574h-4.671V6.42h12.181a7.784,7.784,0,0,1,4.449.948,4.915,4.915,0,0,1,2.283,4.178,4.88,4.88,0,0,1-3.254,4.738c1.852.654,2.42,1.7,2.463,4.61a8.809,8.809,0,0,0,.8,4.2h-5.156a7.569,7.569,0,0,1-.365-3.254c0-2.712-.743-3.549-3.141-3.549h-5.583Z" transform="translate(-79.88 -3.446)" fill="#e0e0e0"/>
    <path id="Path_30" data-name="Path 30" d="M500,25.085V6.42h17.089v3.79H504.682v3.509H515.64V17.5H504.682v3.848h12.407v3.79Z" transform="translate(-420.142 -3.446)" fill="#e0e0e0"/>
    <path id="Path_31" data-name="Path 31" d="M633.417,25.009h-4.68V10.12H622.28V6.33h17.58v3.79h-6.443Z" transform="translate(-522.916 -3.37)" fill="#e0e0e0"/>
    <path id="Path_32" data-name="Path 32" d="M759.186,14.344c-1.332,5.305-4.971,7.976-11.007,7.976-6.87,0-11.209-3.819-11.209-9.831,0-6.16,4.471-10.169,11.33-10.169a11.235,11.235,0,0,1,7.888,2.686,8.145,8.145,0,0,1,2.732,4.478h-5.061c-.948-2.369-2.8-3.525-5.6-3.525a6.107,6.107,0,0,0-6.349,6.438,6,6,0,0,0,6.259,6.282c2.985,0,4.77-1.33,5.849-4.334Z" transform="translate(-619.311)" fill="#e0e0e0"/>
    <path id="Path_33" data-name="Path 33" d="M905.363,6.42v7.271h-9.608V6.42H891.09V25.083h4.675v-7.61h9.608v7.612h4.666V6.42Z" transform="translate(-748.847 -3.446)" fill="#e0e0e0"/>
    <path id="Path_34" data-name="Path 34" d="M.12,25.085V6.42H16.5v3.79H4.8v3.509H15.531V17.5H4.8v7.585Z" transform="translate(0 -3.446)" fill="#e0e0e0"/>
    <path id="Path_35" data-name="Path 35" d="M382.17,25.085V6.42h16.381v3.79H386.845v3.509H397.6V17.5H386.845v7.585Z" transform="translate(-321.107 -3.446)" fill="#e0e0e0"/>
  </g>
</svg>
