<svg xmlns="http://www.w3.org/2000/svg" xmlns:xlink="http://www.w3.org/1999/xlink" width="161.07" height="27.859" viewBox="0 0 161.07 27.859">
  <defs>
    <clipPath id="clip-path">
      <rect id="Rectangle_167" data-name="Rectangle 167" width="161.07" height="27.859" fill="none"/>
    </clipPath>
  </defs>
  <g id="logo" clip-path="url(#clip-path)">
    <path id="Path_173" data-name="Path 173" d="M12.691,3.544V26.025a1.74,1.74,0,0,1-.515,1.282,1.689,1.689,0,0,1-1.24.515,1.753,1.753,0,0,1-1.789-1.8V3.544H1.794A1.76,1.76,0,0,1,.533,3.029,1.655,1.655,0,0,1,0,1.792,1.7,1.7,0,0,1,.533.511,1.76,1.76,0,0,1,1.794,0H20.087a1.76,1.76,0,0,1,1.261.515,1.7,1.7,0,0,1,.534,1.282,1.655,1.655,0,0,1-.534,1.24,1.76,1.76,0,0,1-1.261.515ZM53.581,26.923a1.827,1.827,0,0,0,2.843.387,1.655,1.655,0,0,0,.534-1.24,2.3,2.3,0,0,0-.129-.727q-.086-.086-12.395-24.4A1.482,1.482,0,0,0,42.981,0a1.511,1.511,0,0,0-1.5.983L29.134,25.342a1.6,1.6,0,0,0-.171.727,1.655,1.655,0,0,0,.534,1.24,1.761,1.761,0,0,0,1.261.515H42.511a1.689,1.689,0,0,0,1.24-.515,1.772,1.772,0,0,0-1.237-3.035H33.663L42.98,5.937ZM71.875,0a1.76,1.76,0,0,0-1.263.515,1.7,1.7,0,0,0-.534,1.282V26.025a1.7,1.7,0,0,0,.534,1.282,1.8,1.8,0,0,0,2.522,0,1.7,1.7,0,0,0,.534-1.282V1.792A1.7,1.7,0,0,0,73.136.511,1.76,1.76,0,0,0,71.875,0ZM107.149,0a1.7,1.7,0,0,0-1.31.461l-15.334,13.8V1.821A1.7,1.7,0,0,0,89.971.539a1.8,1.8,0,0,0-2.522,0,1.7,1.7,0,0,0-.534,1.282V26.057a1.7,1.7,0,0,0,.534,1.282,1.8,1.8,0,0,0,2.522,0,1.7,1.7,0,0,0,.534-1.282V19.1l3.649-3.286,11.61,11.525a.383.383,0,0,0,.258.214,1.808,1.808,0,0,0,1.154.3,1.687,1.687,0,0,0,1.111-.515,1.62,1.62,0,0,0,.535-1.2,1.692,1.692,0,0,0-.451-1.24l-.129-.129-11.4-11.365,11.4-10.275a1.7,1.7,0,0,0,.6-1.256,1.759,1.759,0,0,0-.46-1.28A1.761,1.761,0,0,0,107.149,0ZM159.274,0a1.76,1.76,0,0,0-1.261.515,1.7,1.7,0,0,0-.534,1.282V26.025a1.7,1.7,0,0,0,.534,1.282,1.8,1.8,0,0,0,2.522,0,1.7,1.7,0,0,0,.534-1.282V1.792a1.7,1.7,0,0,0-.534-1.281A1.76,1.76,0,0,0,159.274,0Zm-18.3,26.926a1.827,1.827,0,0,0,2.842.387,1.655,1.655,0,0,0,.534-1.24,2.3,2.3,0,0,0-.129-.727q-.086-.086-12.395-24.4A1.482,1.482,0,0,0,130.376,0a1.511,1.511,0,0,0-1.5.983L116.528,25.342a1.6,1.6,0,0,0-.171.727,1.655,1.655,0,0,0,.534,1.24,1.76,1.76,0,0,0,1.261.515h11.754a1.689,1.689,0,0,0,1.24-.515,1.772,1.772,0,0,0-1.237-3.035h-8.849l9.316-18.336Z" transform="translate(0.001 0.003)" fill="#e0e0e0"/>
  </g>
</svg>
